<svg width="125" height="39" viewBox="0 0 125 39" fill="none" xmlns="http://www.w3.org/2000/svg">
<g clip-path="url(#clip0_2701_1493)">
<path fill-rule="evenodd" clip-rule="evenodd" d="M115.514 20.0311H111.103C107.722 20.0311 104.668 19.5038 101.949 18.449C98.1848 16.9658 96.301 14.7574 96.301 11.8209C96.301 8.88442 98.1848 6.68803 101.958 5.23476C104.686 4.18002 107.737 3.65265 111.126 3.65265H121.449C122.165 3.65265 122.87 3.75153 123.558 3.95229C124.52 4.23695 125 4.65046 125 5.19282C125 5.73517 124.52 6.14868 123.558 6.43334C122.836 6.6341 122.137 6.73298 121.449 6.73298H114.261C112.137 6.73298 110.302 7.05959 108.762 7.71581C106.639 8.59976 105.581 9.98111 105.581 11.8629C105.581 13.46 106.419 14.7125 108.098 15.6264C109.363 16.3096 110.889 16.7231 112.674 16.8669C114.46 16.837 115.356 16.3665 115.356 15.4556V12.5491C115.356 11.752 116.003 11.1377 117.294 10.7092C118.23 10.4246 119.192 10.2808 120.181 10.2808C121.169 10.2808 122.134 10.4246 123.067 10.7092C124.358 11.1377 125.006 11.749 125.006 12.5491V15.2009C125.006 16.8549 123.755 18.1374 121.252 19.0483C119.409 19.7045 117.499 20.0311 115.52 20.0311H115.514Z" fill="#F8F8F8"/>
<path fill-rule="evenodd" clip-rule="evenodd" d="M96.1076 17.2535C95.4488 17.0527 94.7612 16.9538 94.0447 16.9538H86.8273C84.7095 16.9538 82.9384 16.6392 81.5082 16.0129C81.4245 15.974 81.3436 15.935 81.2627 15.8961C80.8091 15.6923 80.4132 15.3897 80.4132 15.3897C79.1911 14.5207 78.5815 13.3311 78.5815 11.8209V5.92095C78.5815 5.1239 77.9343 4.50963 76.6428 4.08114C75.7067 3.79648 74.7445 3.65265 73.7564 3.65265C72.7683 3.65265 71.8033 3.79648 70.8701 4.08114C69.5786 4.50963 68.9314 5.1209 68.9314 5.92095V11.8239C68.9314 14.7604 70.8152 16.9688 74.5799 18.452C74.7503 18.5179 74.9237 18.5839 75.097 18.6438C75.4611 18.7786 76.7959 19.1742 76.7959 19.1742C78.9224 19.7465 81.2222 20.0311 83.6925 20.0311H94.0013C94.689 20.0311 95.3766 19.9323 96.0642 19.7315C97.0552 19.4468 97.5493 19.0333 97.5493 18.491C97.5493 17.9486 97.0697 17.5351 96.1047 17.2505L96.1076 17.2535Z" fill="#F8F8F8"/>
<path d="M62.8697 4.63548C61.2055 4.04219 59.4864 3.71857 57.7124 3.66164C57.5217 3.65565 57.331 3.65265 57.1374 3.65265H43.9163C43.7227 3.65265 43.532 3.65565 43.3413 3.66164C41.5673 3.71857 39.8482 4.04219 38.184 4.63548C35.6819 5.51943 34.4309 6.8019 34.4309 8.4829V17.7628C34.4309 18.5599 35.0781 19.1742 36.3696 19.6027C37.3028 19.8873 38.2678 20.0311 39.2559 20.0311H39.2588C40.2469 20.0311 41.2091 19.8873 42.1423 19.6027C43.4338 19.1742 44.081 18.5629 44.081 17.7628L44.0867 14.6166C44.2254 14.284 44.5895 14.0083 45.176 13.7926C45.7249 13.5918 46.3028 13.4929 46.9095 13.4929H54.1471C54.7509 13.4929 55.3288 13.5918 55.8777 13.7926C56.4642 14.0083 56.8254 14.284 56.967 14.6166L56.9727 17.7628C56.9727 18.5599 57.6199 19.1742 58.9114 19.6027C59.8446 19.8873 60.8068 20.0311 61.7949 20.0311H61.7978C62.7859 20.0311 63.7509 19.8873 64.6841 19.6027C65.9756 19.1742 66.6228 18.5629 66.6228 17.7628V8.4829C66.6228 6.8019 65.3718 5.51643 62.8697 4.63548ZM56.967 10.5864H44.0867L44.081 9.12713L44.0867 7.91957C44.1503 7.4761 44.5317 7.1375 45.2309 6.90378C45.7798 6.70302 46.3577 6.60413 46.9644 6.60413H54.0922C54.696 6.60413 55.2739 6.70302 55.8228 6.90378C56.522 7.1375 56.9005 7.4761 56.967 7.91957V10.5864Z" fill="#F8F8F8"/>
<path d="M38.8081 32.2746C39.1635 32.2746 39.4322 32.1368 39.6171 31.8641C39.7992 31.5914 39.8916 31.1989 39.8916 30.6895H42.1568L42.1828 30.7434C42.2001 31.7832 41.8881 32.6342 41.2438 33.3024C40.5995 33.9706 39.7876 34.3032 38.8053 34.3032C37.5484 34.3032 36.5834 33.8357 35.9131 32.8978C35.2399 31.96 34.9048 30.7494 34.9048 29.2602V28.9935C34.9048 27.5193 35.2399 26.3087 35.9131 25.3648C36.5863 24.4209 37.5455 23.9505 38.7966 23.9505C39.8396 23.9505 40.6688 24.2951 41.2842 24.9873C41.8996 25.6794 42.2001 26.6113 42.1828 27.7859L42.1654 27.8309H39.8887C39.8887 27.2765 39.7963 26.8331 39.6142 26.4945C39.4293 26.1559 39.1577 25.9881 38.7966 25.9881C38.2736 25.9881 37.9125 26.2637 37.7131 26.8121C37.5109 27.3634 37.4098 28.0886 37.4098 28.9935V29.2602C37.4098 30.1891 37.5109 30.9232 37.7131 31.4626C37.9154 32.0019 38.2794 32.2746 38.8053 32.2746H38.8081Z" fill="#F8F8F8"/>
<path d="M42.7808 29.0295C42.7808 27.5312 43.1246 26.3087 43.8151 25.3648C44.5056 24.4209 45.4764 23.9505 46.7275 23.9505C47.9785 23.9505 48.9435 24.4209 49.6427 25.3648C50.3419 26.3087 50.6915 27.5282 50.6915 29.0295V29.2422C50.6915 30.7404 50.3448 31.96 49.6485 32.8978C48.9522 33.8357 47.9843 34.3032 46.7477 34.3032C45.5111 34.3032 44.5172 33.8357 43.8238 32.9008C43.1304 31.966 42.7836 30.7464 42.7836 29.2422V29.0295H42.7808ZM45.2771 29.2422C45.2771 30.1711 45.3869 30.9082 45.6093 31.4536C45.8318 32.0019 46.2103 32.2746 46.7419 32.2746C47.2735 32.2746 47.6173 32.0019 47.8427 31.4536C48.0681 30.9082 48.1807 30.1681 48.1807 29.2422V29.0295C48.1807 28.1125 48.0681 27.3784 47.8427 26.8211C47.6173 26.2637 47.2446 25.9881 46.7217 25.9881C46.1987 25.9881 45.8289 26.2667 45.6064 26.8271C45.384 27.3874 45.2742 28.1215 45.2742 29.0295V29.2422H45.2771Z" fill="#F8F8F8"/>
<path d="M54.0259 24.1333L54.1241 25.4158C54.3841 24.9483 54.7106 24.5887 55.1064 24.334C55.4994 24.0793 55.953 23.9505 56.4615 23.9505C56.97 23.9505 57.4005 24.0883 57.7674 24.361C58.1344 24.6337 58.4175 25.0502 58.6111 25.6105C58.8653 25.0891 59.1947 24.6816 59.5934 24.388C59.9921 24.0973 60.4602 23.9505 60.9918 23.9505C61.7979 23.9505 62.4336 24.3011 62.9016 25.0022C63.3697 25.7034 63.6037 26.7761 63.6037 28.2204V34.1114H61.0987V28.2204C61.0987 27.3784 61.0121 26.7971 60.8416 26.4795C60.6682 26.1589 60.4053 26.0001 60.0499 26.0001C59.7899 26.0001 59.5588 26.078 59.3565 26.2338C59.1543 26.3896 58.9896 26.6083 58.8596 26.884C58.8653 27.0368 58.874 27.1687 58.8827 27.2795C58.8914 27.3904 58.8971 27.5013 58.8971 27.6121V34.1114H56.4008V28.2204C56.4008 27.3904 56.3142 26.8121 56.1437 26.4885C55.9732 26.1619 55.7045 26.0001 55.3434 26.0001C55.1007 26.0001 54.8811 26.063 54.6904 26.1888C54.4968 26.3147 54.3321 26.4915 54.1963 26.7192V34.1114H51.6885V24.1363H54.0259V24.1333Z" fill="#F8F8F8"/>
<path d="M72.5488 29.3711C72.5488 30.8573 72.2656 32.0529 71.6993 32.9518C71.133 33.8537 70.3414 34.3032 69.3215 34.3032C68.9141 34.3032 68.5501 34.2193 68.238 34.0485C67.9231 33.8807 67.6515 33.632 67.4204 33.3054V34.7676H64.9241V24.1333H67.2181L67.325 25.1551C67.5619 24.7685 67.8422 24.4689 68.1687 24.2621C68.4952 24.0524 68.8737 23.9475 69.307 23.9475C70.3385 23.9475 71.1359 24.4269 71.7022 25.3858C72.2685 26.3447 72.5517 27.6062 72.5517 29.1733V29.3681L72.5488 29.3711ZM70.0438 29.1763C70.0438 28.2234 69.9311 27.4563 69.7058 26.872C69.4804 26.2877 69.1308 25.9971 68.657 25.9971C68.3738 25.9971 68.1282 26.072 67.9202 26.2218C67.7122 26.3716 67.5475 26.5814 67.4233 26.8541V31.5554C67.5475 31.7892 67.7122 31.966 67.9202 32.0888C68.1282 32.2117 68.3767 32.2746 68.6656 32.2746C69.151 32.2746 69.5035 32.0169 69.7202 31.5045C69.9369 30.9921 70.0438 30.279 70.0438 29.3711V29.1763Z" fill="#F8F8F8"/>
<path d="M78.3156 34.1084C78.2202 33.8867 78.1422 33.647 78.0787 33.3893C78.0151 33.1316 77.9718 32.8679 77.94 32.5952C77.7262 33.0926 77.4459 33.5031 77.0992 33.8207C76.7525 34.1414 76.3278 34.3002 75.8251 34.3002C74.9496 34.3002 74.2735 34.0335 73.8026 33.5031C73.3316 32.9728 73.0947 32.2416 73.0947 31.3127C73.0947 30.3838 73.4039 29.5868 74.0222 29.0504C74.6405 28.5141 75.5679 28.2444 76.7987 28.2444H77.8909V27.4144C77.8909 26.917 77.8013 26.5334 77.6251 26.2667C77.4488 26.0001 77.183 25.8652 76.8334 25.8652C76.5242 25.8652 76.2902 25.9731 76.1313 26.1888C75.9724 26.4046 75.8915 26.7102 75.8915 27.1117L73.4732 27.1027L73.4559 27.0488C73.4212 26.1888 73.7304 25.4577 74.3891 24.8554C75.0479 24.2531 75.9146 23.9535 76.9923 23.9535C78.0064 23.9535 78.827 24.2561 79.4539 24.8554C80.0809 25.4577 80.3958 26.3177 80.3958 27.4353V31.5285C80.3958 31.9959 80.4276 32.4394 80.4941 32.8559C80.5605 33.2724 80.6587 33.6919 80.7974 34.1084H78.3098H78.3156ZM76.4751 32.3765C76.8074 32.3765 77.1021 32.2716 77.365 32.0588C77.625 31.8461 77.8042 31.5914 77.8995 31.2888V29.7216H76.8074C76.3856 29.7216 76.0793 29.8625 75.8886 30.1441C75.695 30.4258 75.5997 30.7824 75.5997 31.2138C75.5997 31.5584 75.6806 31.8371 75.8395 32.0528C75.9984 32.2686 76.2122 32.3765 76.4809 32.3765H76.4751Z" fill="#F8F8F8"/>
<path d="M83.9524 24.1333L84.0593 25.5266C84.3309 25.0292 84.666 24.6427 85.059 24.364C85.4519 24.0883 85.8939 23.9505 86.3793 23.9505C87.197 23.9505 87.8384 24.2801 88.3036 24.9423C88.7687 25.6045 89.0028 26.6413 89.0028 28.0526V34.1084H86.4949V28.0526C86.4949 27.3035 86.4082 26.7731 86.232 26.4615C86.0557 26.1499 85.7928 25.9971 85.4374 25.9971C85.1601 25.9971 84.9087 26.066 84.6862 26.2008C84.4638 26.3357 84.276 26.5274 84.1228 26.7731V34.1114H81.615V24.1363H83.9524V24.1333Z" fill="#F8F8F8"/>
<path d="M93.3656 30.0812V30.1082H93.4205L94.8593 24.1363H97.5521L94.2352 35.6126C93.9925 36.3318 93.666 36.931 93.2587 37.4135C92.8513 37.8959 92.2243 38.1356 91.3835 38.1356C91.1813 38.1356 91.0022 38.1176 90.8461 38.0847C90.6901 38.0517 90.4677 37.9978 90.1845 37.9229L90.4879 36.0141C90.5543 36.0261 90.6179 36.0381 90.6786 36.0501C90.7421 36.0621 90.8028 36.0681 90.8606 36.0681C91.2275 36.0681 91.5078 35.9632 91.7014 35.7534C91.8949 35.5437 92.0336 35.271 92.1232 34.9324L92.363 34.1683L89.4651 24.1303H92.1579L93.3656 30.0752V30.0812Z" fill="#F8F8F8"/>
<path d="M3.83398 19.0753C4.53029 20.13 6.11937 20.4327 8.21984 20.0761C6.82145 20.169 5.76977 19.8574 5.25837 19.0813C4.06223 17.2684 6.27828 13.7386 10.4157 10.3047C12.2185 8.80652 14.5819 7.11054 16.2057 6.25056C20.6898 3.87139 24.3851 2.91853 25.5466 4.67444C26.058 5.45051 25.9598 6.58017 25.3704 7.8986C26.448 5.99586 26.7543 4.35382 26.0551 3.29608C24.7434 1.30944 20.2275 1.88176 15.2031 4.68043C13.4985 5.6303 10.4966 7.74578 9.19641 8.9054C4.71809 12.8936 2.50204 17.0587 3.83109 19.0753" fill="#DE0000"/>
<path d="M31.3222 1.58522C30.3572 0.122961 28.1527 -0.293543 25.2432 0.197872C27.1819 0.0660287 28.641 0.503508 29.3488 1.57623C31.0072 4.09024 27.9331 8.98341 22.198 13.7417C19.6959 15.8183 16.4224 18.1705 14.1688 19.3631C7.95402 22.6591 2.82851 23.9836 1.21921 21.5475C0.511343 20.4747 0.647137 18.9046 1.46479 17.0798C-0.0260551 19.7136 -0.447884 21.9939 0.520011 23.4592C2.33734 26.2129 8.59832 25.4188 15.5614 21.5385C17.9248 20.22 22.0853 17.2865 23.8882 15.6834C30.0942 10.155 33.1684 4.38089 31.3251 1.58822" fill="#DE0000"/>
<path d="M67.4174 35.3519H64.9211V37.9408H67.4174V35.3519Z" fill="#DE0000"/>
</g>
<defs>
<clipPath id="clip0_2701_1493">
<rect width="125" height="38.1356" fill="white"/>
</clipPath>
</defs>
</svg>
