<?xml version="1.0" encoding="UTF-8"?><svg id="Layer_1" xmlns="http://www.w3.org/2000/svg" viewBox="0 0 193.36 41.63"><defs><style>.cls-1{fill:#fefdfd;}.cls-1,.cls-2{stroke-width:0px;}.cls-2{fill:#f25d1b;}</style></defs><path class="cls-2" d="M95.32,22.84c.92-.42,1.42-1.29,2.07-1.99,1.98-2.13,3.98-4.23,6.18-6.14,1.39-1.2,2.75-1.52,4.39-.49,1.27.79,2.5,1.62,3.63,2.61,1.02.89,1.26,1.87.77,3.13-1.26,3.28-2.5,6.56-3.7,9.86-.54,1.48-.98,2.99-1.44,4.49-.09.29-.21.69.1.9.34.23.58-.13.83-.32,1.34-1.04,2.69-2.07,4-3.14,2.29-1.87,4.22-3.98,5.73-6.62,2.27-3.97,5.14-7.54,8.88-10.3,1.31-.97,2.77-1.64,4.39-1.95,3.57-.69,6.6,1.67,6.89,5.32.24,3-.38,5.86-1.27,8.68-.13.41-.54.91-.21,1.22.41.37.9-.11,1.31-.31,2.69-1.32,4.87-3.31,6.92-5.44,2.58-2.69,4.81-5.65,6.51-8.99.92-1.82,1.49-1.92,2.96-.47,1.32,1.3,2.55,2.7,3.83,4.05.51.54.67,1.2.66,1.9-.04,2.79.35,5.55.55,8.32.16,2.28-.24,4.48-1.35,6.51.34.18.6.09.83-.09,2.44-1.85,4.91-3.64,6.49-6.41,1.98-3.48,4.31-6.74,7.2-9.55,1.84-1.78,3.98-3.01,6.59-3.31,1.08-.12,2.11,0,3.04.54.66.37.95.26,1.26-.43.76-1.72,1.01-1.76,2.51-.59.92.72,1.79,1.51,2.69,2.26,1.1.92,1.32,2.06.91,3.38-1.02,3.31-2.05,6.63-3.06,9.95-.26.86-.27,1.75-.14,2.64.06.44.12.94.57,1.14.49.22.84-.21,1.15-.49,1.23-1.11,2.32-2.35,3.29-3.71.25-.36.34-1.22,1.07-.81.67.38,1.18,1.01.95,1.91-.06.23-.2.44-.33.64-2.2,3.32-4.8,6.29-7.7,9.01-1.72,1.61-3.82,1.89-5.58.98-1.46-.76-1.98-2.04-2.13-3.56-.03-.3.11-.64-.25-1.02-.78.75-1.53,1.51-2.31,2.23-1.47,1.36-3.04,2.57-5.16,2.67-3.83.19-6.27-2.13-6.36-5.99,0-.31-.03-.62-.06-1.18-1.18.92-2.2,1.74-3.24,2.53-2.04,1.53-4.13,2.98-6.51,3.94-2.63,1.06-5.19.93-7.71-.4-1.62-.85-3.14-1.84-4.41-3.16-.55-.57-.97-1.13-.3-1.99.63-.8,1.18-.86,2.06-.45,2.91,1.34,5.02.39,6.1-2.63.56-1.57.87-3.2.94-4.85.06-1.53.02-3.07,0-4.6,0-.27.1-.65-.2-.77-.42-.16-.5.31-.66.55-2.55,3.84-5.87,6.86-9.81,9.21-1.53.91-3.19,1.58-4.92,2.01-.85.21-1.4.62-1.87,1.35-1.91,2.99-4.32,5.45-7.83,6.52-5.46,1.68-9.33-1.07-9.58-6.77-.01-.32-.03-.63-.04-.96-.58-.04-.79.41-1.1.69-2.35,2.1-4.71,4.18-7.45,5.79-3.05,1.79-6.75.81-8.5-2.26-.3-.53-.38-1.1-.22-1.74,1.22-5.07,2.95-9.97,4.78-14.85.15-.4.48-.76.31-1.26-.57-.05-.74.45-1.02.74-5.16,5.27-8.89,11.46-11.73,18.22-.89,2.11-1.39,2.38-3.56,1.6-1.61-.58-3.3-1.32-4.17-2.77-.63-1.06.23-2.48.53-3.7.9-3.68,1.93-7.33,3.13-10.93.18-.54.54-1.08.35-1.71-.56-.06-.72.38-.98.66-4.99,5.35-8.74,11.48-11.52,18.22-.64,1.55-1.11,1.77-2.69,1.17-1.69-.64-3.11-1.7-4.41-2.93-.6-.57-.82-1.21-.6-2.07.2-.76.47-1.54.37-2.43-.61-.03-.91.46-1.28.76-2.45,1.99-4.93,3.93-7.72,5.43-3.12,1.68-6.71.68-8.56-2.38-.35-.58-.44-1.17-.25-1.85.18-.64.52-1.28.29-2.07-1.05.43-1.77,1.26-2.61,1.91-2.14,1.66-4.29,3.3-6.74,4.5-2.97,1.46-6.7.22-8.27-2.7-.33-.62-.27-1.21-.11-1.87,1.15-4.67,2.69-9.21,4.39-13.71.24-.63.44-1.28.7-2.02-.66.02-.88.42-1.17.71-5.33,5.41-9.07,11.83-11.91,18.81-.48,1.17-1.19,1.43-2.26,1.2-1.95-.42-3.58-1.43-5.05-2.75-.45-.41-.33-.84-.23-1.33.98-4.79,2.4-9.46,3.88-14.11.14-.45.43-.88.32-1.39-.49-.09-.65.31-.88.55-5.06,5.44-8.95,11.63-11.73,18.51-.58,1.44-1.11,1.73-2.6,1.18-1.73-.63-3.21-1.69-4.53-2.96-.56-.54-.75-1.2-.59-1.98,1.53-7.24,3.52-14.34,6.43-21.16.71-1.67.91-1.72,2.55-1,1.63.72,3.1,1.72,4.53,2.78.76.56.96,1.14.57,2.07-.51,1.2-1.05,2.41-1.27,3.8.7-.19.94-.7,1.27-1.08,1.83-2.1,3.67-4.2,5.7-6.11.47-.44.98-.84,1.47-1.27,1.42-1.24,2.86-1.43,4.51-.35,1.31.87,2.71,1.6,3.95,2.59.6.47.7.96.44,1.68-.55,1.5-1.22,2.96-1.55,4.56.68.09.83-.43,1.1-.72,2.26-2.48,4.5-4.98,7.05-7.16,2.06-1.76,2.72-1.83,5.06-.5,1.3.74,2.49,1.64,3.56,2.7.75.75.9,1.53.53,2.53-1.44,3.81-2.86,7.63-4.25,11.46-.39,1.06-.67,2.16-1,3.24-.29.97.2,1.12.93.79.73-.33,1.42-.77,2.08-1.23,2.59-1.8,4.99-3.85,7.39-5.88.39-.33.6-.74.75-1.2,1.27-3.7,2.67-7.36,4.19-10.97.17-.41.39-.8.56-1.21.36-.88,1.02-1.01,1.77-.64,1.83.89,3.47,2.05,4.85,3.56.61.67.48,1.41.2,2.16-1.38,3.71-2.77,7.4-4.13,11.12-.43,1.17-.75,2.38-1.12,3.58-.08.27-.19.55.03.8.29.34.62.1.89-.02,1.52-.69,2.81-1.74,4.14-2.73.52-.39.99-.83,1.54-1.18,2.83-1.79,4.43-4.31,5.2-7.61.71-3.05,1.9-5.99,3.21-8.86.5-1.09,1.13-1.28,2.2-.77,1.75.85,3.4,1.86,4.93,3.06.6.47.74.97.46,1.68-.51,1.3-.96,2.62-1.49,4.08.78-.13.99-.66,1.31-1.02,2.14-2.42,4.22-4.9,6.68-7.02.28-.24.57-.45.85-.68,1.27-1.02,2.53-1.17,3.99-.27,1.37.85,2.78,1.63,4.08,2.6.69.52.84,1.09.51,1.89-.42,1.01-.74,2.05-1.11,3.07-.16.46-.35.91-.19,1.41-.04.03-.09.06-.13.09h.07s.02-.07.04-.1h-.06ZM132.72,20.59c-.03-.93.13-1.97-.99-2.38-1.13-.42-1.92.27-2.62,1.04-.27.3-.53.61-.74.95-1.81,2.93-3.15,6.07-4.03,9.4-.2.75-.22,1.53-.11,2.28.16,1.09.65,2.03,1.82,2.32,1.13.28,1.8-.41,2.37-1.27.78-1.18,1.39-2.46,1.89-3.78,1.05-2.78,2.14-5.56,2.41-8.56ZM172.93,30.89c0,1.8.67,2.98,1.84,3.28,1.03.26,1.89-.32,2.77-1.88.02-.04.04-.07.06-.11,1.61-2.96,2.65-6.13,3.51-9.36.27-1,.45-2.05.34-3.11-.16-1.54-1.36-2.14-2.68-1.32-.81.5-1.36,1.25-1.84,2.05-1.49,2.46-2.6,5.09-3.49,7.81-.29.88-.56,1.77-.49,2.63h-.02Z"/><path class="cls-2" d="M65.75,9.87c-2.12-.63-4.15-1.81-5.88-3.51-.34-.33-.21-.77-.05-1.14.66-1.56,1.34-3.1,2.01-4.66.24-.57.67-.66,1.19-.48,2.13.76,3.91,2.06,5.52,3.61.31.3.42.67.25,1.1-.54,1.43-1.04,2.87-1.61,4.29-.2.5-.57.89-1.43.78h0Z"/><path class="cls-1" d="M95.32,22.84s-.02.08-.04.1c0,.01-.05,0-.07,0,.04-.03.09-.06.13-.09l-.02-.02h0Z"/><path class="cls-2" d="M190.27,39.15v1.1h-.31v-2.65h.73c.33,0,.57.06.72.19s.23.31.23.56c0,.35-.18.59-.53.71l.72,1.19h-.36l-.64-1.1h-.55ZM190.27,38.89h.42c.22,0,.38-.04.48-.13s.15-.22.15-.39-.05-.3-.16-.38-.27-.12-.5-.12h-.4v1.01Z"/><path class="cls-2" d="M190.9,41.29c-1.3,0-2.36-1.06-2.36-2.36s1.06-2.36,2.36-2.36,2.36,1.06,2.36,2.36-1.06,2.36-2.36,2.36ZM190.9,36.84c-1.15,0-2.09.94-2.09,2.09s.94,2.09,2.09,2.09,2.09-.94,2.09-2.09-.94-2.09-2.09-2.09Z"/></svg>