<svg xmlns="http://www.w3.org/2000/svg" width="1562" height="446" viewBox="0 0 1562 446" fill="none"><g clip-path="url(#clip0_407_155)"><path d="M544.425 230.482L566.867 250.433L551.49 266.852L531.957 250.433H440.943C434.085 250.433 428.267 248.147 423.488 243.367C418.708 238.587 416.215 232.976 416.215 226.325V149.429C416.215 142.778 418.708 136.959 423.488 132.387C428.267 127.607 434.085 125.321 440.943 125.321H519.489C526.347 125.321 532.165 127.607 537.152 132.387C541.931 137.167 544.425 142.778 544.425 149.429V230.482ZM1482 248.771H1459.35V176.239L1419.24 245.03C1418.21 246.692 1416.96 248.147 1415.09 248.979C1413.43 249.81 1411.35 250.433 1409.48 250.433C1407.61 250.433 1405.74 250.018 1403.87 248.979C1402.21 248.147 1400.75 246.692 1399.92 245.03L1359.81 176.239V248.771H1337.17V136.543C1337.17 134.049 1338 131.763 1339.45 129.685C1340.91 127.607 1342.98 126.36 1345.48 125.736C1346.72 125.528 1347.97 125.321 1349.22 125.528C1350.46 125.528 1351.5 125.944 1352.75 126.36C1353.79 126.775 1354.83 127.399 1355.87 128.23C1356.7 129.061 1357.53 129.893 1358.15 130.932L1409.48 218.22L1460.8 130.932C1462.05 128.854 1463.92 127.191 1466.41 126.36C1468.7 125.528 1471.19 125.321 1473.69 125.944C1476.18 126.567 1478.05 128.022 1479.71 129.893C1481.17 131.971 1482 134.049 1482 136.751V248.771ZM751.389 125.321H829.728C836.585 125.321 842.404 127.607 847.391 132.387C852.17 137.167 854.664 142.778 854.664 149.429V250.433H830.975V208.452H750.142V250.433H726.662V149.429C726.662 142.778 729.155 136.959 733.934 132.387C738.714 127.607 744.532 125.321 751.389 125.321ZM675.959 226.325V125.321H699.648V226.325C699.648 232.976 697.155 238.795 692.375 243.367C687.596 248.147 681.778 250.433 674.92 250.433H596.374C589.516 250.433 583.698 248.147 578.919 243.367C574.14 238.587 571.646 232.976 571.646 226.325V125.321H595.127V226.325C595.127 227.156 595.542 227.572 596.374 227.572H674.92C675.544 227.572 675.959 227.156 675.959 226.325ZM1286.46 226.325V125.321H1310.15V226.325C1310.15 232.976 1307.66 238.795 1302.88 243.367C1298.1 248.147 1292.28 250.433 1285.42 250.433H1206.88C1200.02 250.433 1194.2 248.147 1189.42 243.367C1184.64 238.587 1182.15 232.976 1182.15 226.325V125.321H1205.63V226.325C1205.63 227.156 1206.05 227.572 1206.88 227.572H1285.42C1286.05 227.572 1286.46 227.156 1286.46 226.325ZM1030.04 125.321H1158.05V148.182H1105.89V250.433H1082.2V148.182H1030.04V125.321ZM1005.94 239.418C1005.94 241.081 1005.73 242.536 1005.11 243.783C1004.48 245.238 1003.65 246.277 1002.61 247.316C1001.58 248.355 1000.33 249.186 999.082 249.602C997.627 250.225 996.173 250.433 994.718 250.433C993.263 250.433 992.017 250.225 990.562 249.602C989.107 249.186 987.861 248.355 986.822 247.108L904.535 162.937V248.563H882.093V136.335C882.093 134.049 882.716 131.971 883.963 130.101C885.21 128.23 886.872 126.983 888.95 125.944C891.028 125.113 893.314 124.905 895.599 125.321C897.885 125.736 899.755 126.775 901.418 128.438L983.705 212.609V126.983H1006.15L1005.94 239.418ZM441.15 227.572H519.489C520.32 227.572 520.736 227.156 520.736 226.325V149.429C520.736 148.597 520.32 148.182 519.489 148.182H441.15C440.319 148.182 439.904 148.597 439.904 149.429V226.325C439.904 227.156 440.319 227.572 441.15 227.572ZM750.142 185.383H830.975V149.429C830.975 148.597 830.559 148.182 829.728 148.182H751.389C750.558 148.182 750.142 148.597 750.142 149.429V185.383ZM1534.99 107.447H1537.27H1537.48C1538.73 107.447 1539.97 107.655 1541.43 107.863C1545.58 108.694 1549.53 110.357 1552.86 112.851C1558.26 117.215 1561.38 122.619 1562 129.269C1562 129.477 1562 129.893 1562 130.101V132.387V132.595C1562 134.257 1561.58 135.712 1561.17 137.167C1559.51 142.986 1555.97 147.558 1550.78 150.883C1546.83 153.377 1542.68 154.832 1537.9 155.04C1536.23 155.248 1534.78 155.04 1533.12 155.04C1531.45 154.832 1529.79 154.624 1528.13 154.001C1523.35 152.546 1519.4 150.052 1516.08 146.519C1512.54 142.57 1510.47 137.79 1510.26 132.595C1510.05 130.308 1510.26 128.23 1510.88 125.944C1511.71 122.203 1513.58 118.878 1516.29 115.968C1519.61 112.435 1523.77 109.941 1528.54 108.486C1530.21 108.071 1531.87 107.655 1533.53 107.655C1534.16 107.655 1534.57 107.447 1534.99 107.447ZM1515.45 131.348C1515.45 141.739 1524.6 150.468 1536.03 150.468C1547.45 150.468 1556.6 141.947 1556.6 131.348C1556.6 120.748 1547.25 112.227 1536.03 112.227C1524.8 112.435 1515.45 120.956 1515.45 131.348ZM1523.97 118.254H1524.18C1527.92 118.254 1531.45 118.254 1535.19 118.254C1537.06 118.254 1538.93 118.462 1540.6 119.086C1541.84 119.501 1542.88 120.125 1543.71 121.164C1544.34 121.995 1544.75 122.827 1544.75 123.658C1544.96 124.905 1544.96 126.152 1544.55 127.399C1544.13 129.061 1542.88 130.101 1541.22 130.932C1540.8 131.14 1540.18 131.348 1539.77 131.555C1539.97 131.555 1539.97 131.555 1540.18 131.763C1541.22 132.179 1542.05 132.802 1542.88 133.634C1543.51 134.465 1544.13 135.296 1544.55 136.128C1545.79 138.414 1547.04 140.7 1548.29 143.194V143.402H1548.08C1545.79 143.402 1543.51 143.402 1541.01 143.402C1540.8 143.402 1540.8 143.402 1540.6 143.194C1539.56 141.115 1538.31 139.037 1537.27 136.959C1536.86 136.128 1536.44 135.504 1535.82 134.881C1535.19 134.257 1534.36 134.049 1533.53 134.049C1532.7 134.049 1531.66 134.049 1530.83 134.049V143.402H1523.77L1523.97 118.254ZM1531.04 123.034V129.477C1532.29 129.477 1533.32 129.477 1534.57 129.477C1534.99 129.477 1535.4 129.477 1535.82 129.269C1536.86 129.061 1537.69 128.646 1537.9 127.607C1538.1 126.983 1538.1 126.36 1538.1 125.736C1538.1 125.321 1537.9 125.113 1537.9 124.697C1537.48 123.658 1536.65 123.242 1535.61 123.034C1533.95 122.827 1532.49 123.034 1531.04 123.034Z" fill="#818285"></path><path fill-rule="evenodd" clip-rule="evenodd" d="M27.6368 321.095L98.0796 288.882C100.989 287.635 104.313 288.882 105.768 291.791C107.015 294.701 105.768 298.026 102.859 299.481L32.4161 331.694C32.4161 332.11 32.4161 332.526 32.4161 332.733C32.4161 341.67 25.1433 348.944 16.2081 348.944C7.27285 348.944 0 341.67 0 332.733C0 323.797 7.27285 316.523 16.2081 316.523C20.7796 316.315 24.7277 318.185 27.6368 321.095Z" fill="#050D9E"></path><path fill-rule="evenodd" clip-rule="evenodd" d="M215.485 39.4874C206.757 37.2013 200.523 29.3038 200.523 20.1594C200.523 9.14445 209.459 0 220.68 0C231.901 0 240.836 8.93663 240.836 20.1594C240.836 29.5117 234.394 37.4091 225.875 39.4874V112.643C225.875 115.345 223.589 117.631 220.887 117.631C218.186 117.631 215.9 115.345 215.9 112.643L215.485 39.4874Z" fill="#C80B0E"></path><path fill-rule="evenodd" clip-rule="evenodd" d="M295.693 358.712C274.083 372.429 248.524 380.326 220.887 380.326C143.587 380.326 80.625 317.562 80.625 240.042C80.625 162.73 143.379 99.7576 220.887 99.7576C298.187 99.7576 361.149 162.522 361.149 240.042C361.149 283.27 341.616 321.926 310.655 347.697L342.655 391.757C345.149 391.133 347.642 390.717 350.344 390.717C365.513 390.717 377.981 402.979 377.981 418.359C377.981 433.53 365.721 446 350.344 446C334.967 446 322.707 433.738 322.707 418.359C322.707 412.54 324.577 407.344 327.486 402.772L295.693 358.712ZM291.745 321.718L270.55 292.622C271.174 290.96 271.381 289.297 271.381 287.427C271.381 278.49 264.109 271.216 255.173 271.216C246.238 271.216 238.965 278.49 238.965 287.427C238.965 296.363 246.238 303.637 255.173 303.637H255.381L276.576 332.733C260.368 342.501 241.251 348.32 220.887 348.32C161.25 348.32 113.041 299.896 113.041 240.457C113.041 180.811 161.458 132.594 220.887 132.594C280.524 132.594 328.733 181.019 328.733 240.457C328.941 272.671 314.603 301.767 291.745 321.718Z" fill="#F36F21"></path><path d="M1447.5 376.377C1441.27 376.377 1435.04 375.546 1429.22 373.883C1423.4 372.221 1418.83 369.935 1415.09 367.233L1421.32 353.516C1424.65 356.01 1428.8 357.881 1433.37 359.543C1437.95 360.998 1442.73 361.829 1447.5 361.829C1451.04 361.829 1453.95 361.414 1456.23 360.79C1458.52 360.167 1460.18 359.128 1461.22 357.881C1462.26 356.634 1462.88 355.179 1462.88 353.516C1462.88 351.438 1462.05 349.775 1460.39 348.528C1458.73 347.281 1456.44 346.242 1453.74 345.411C1451.04 344.58 1448.13 343.956 1444.8 343.125C1441.48 342.501 1438.15 341.462 1435.04 340.423C1431.92 339.384 1428.8 337.929 1426.1 336.266C1423.4 334.604 1421.11 332.318 1419.45 329.616C1417.79 326.914 1416.96 323.381 1416.96 319.225C1416.96 314.652 1418.21 310.496 1420.7 306.755C1423.19 303.014 1426.93 300.104 1431.71 297.818C1436.7 295.532 1442.93 294.493 1450.41 294.493C1455.4 294.493 1460.39 295.116 1465.17 296.156C1469.95 297.403 1474.31 299.065 1478.05 301.351L1472.44 315.276C1468.7 313.197 1464.96 311.535 1461.43 310.496C1457.69 309.457 1454.15 309.041 1450.62 309.041C1447.09 309.041 1444.18 309.457 1441.89 310.288C1439.61 311.119 1437.95 312.158 1437.12 313.613C1436.08 314.86 1435.66 316.523 1435.66 318.185C1435.66 320.264 1436.49 321.926 1438.15 323.173C1439.82 324.42 1442.1 325.459 1444.8 326.083C1447.5 326.914 1450.41 327.538 1453.74 328.369C1457.06 329.2 1460.39 330.032 1463.51 331.071C1466.83 332.11 1469.74 333.357 1472.44 335.019C1475.14 336.682 1477.43 338.968 1479.09 341.67C1480.75 344.372 1481.58 347.905 1481.58 352.061C1481.58 356.426 1480.34 360.582 1477.84 364.323C1475.35 368.064 1471.61 370.974 1466.62 373.26C1461.43 375.338 1455.19 376.377 1447.5 376.377ZM1033.99 376.377C1027.76 376.377 1021.94 375.338 1016.54 373.26C1011.13 371.182 1006.56 368.272 1002.82 364.739C998.874 360.998 995.965 356.634 993.679 351.646C991.601 346.658 990.354 341.254 990.354 335.435C990.354 329.616 991.393 324.212 993.679 319.225C995.757 314.237 998.874 309.872 1002.82 306.131C1006.77 302.39 1011.34 299.481 1016.54 297.61C1021.73 295.532 1027.55 294.493 1033.78 294.493C1040.02 294.493 1045.84 295.532 1051.03 297.61C1056.23 299.689 1060.8 302.598 1064.75 306.131C1068.69 309.872 1071.6 314.237 1073.89 319.017C1076.17 324.005 1077.21 329.408 1077.21 335.435C1077.21 341.254 1076.17 346.866 1073.89 351.854C1071.6 356.841 1068.69 361.206 1064.75 364.947C1060.8 368.688 1056.23 371.389 1051.03 373.468C1045.84 375.546 1040.23 376.377 1033.99 376.377ZM472.735 343.956V295.948H490.814V375.13H475.852L436.371 327.122V375.13H418.293V295.948H433.462L472.735 343.956ZM1300.39 332.733L1335.5 295.74H1355.87L1323.04 331.071L1357.74 374.923H1336.33L1310.98 343.748L1300.39 354.763V374.715H1282.1V295.532H1300.39V332.733ZM579.127 342.086V360.375H622.141V375.13H560.841V295.948H620.686V310.704H579.127V327.953H615.907V342.293H579.127V342.086ZM1163.03 353.101V375.13H1144.75V295.948H1179.03C1186.1 295.948 1192.33 297.195 1197.32 299.481C1202.51 301.767 1206.46 305.092 1209.16 309.457C1211.86 313.821 1213.32 318.809 1213.32 324.836C1213.32 330.655 1211.86 335.851 1209.16 340.007C1206.46 344.372 1202.51 347.489 1197.32 349.775H1197.11L1214.77 375.13H1195.03L1179.86 353.101C1179.66 353.101 1179.24 353.101 1179.03 353.101H1163.03ZM711.7 375.13V310.911H686.349V295.948H755.338V310.911H729.986V375.13H711.7ZM851.547 351.646L870.249 295.948H887.288L905.366 352.061L923.86 295.948H941.315L915.34 375.13H895.6L878.145 321.511L860.274 375.13H840.534L814.559 295.948H833.469L851.547 351.646ZM1033.99 360.79C1037.52 360.79 1040.85 360.167 1043.76 358.92C1046.67 357.673 1049.37 356.01 1051.65 353.724C1053.94 351.438 1055.6 348.736 1056.85 345.619C1058.1 342.501 1058.72 339.176 1058.72 335.227C1058.72 331.279 1058.1 327.953 1056.85 324.836C1055.6 321.718 1053.94 319.017 1051.65 316.731C1049.37 314.444 1046.87 312.782 1043.76 311.535C1040.64 310.288 1037.52 309.664 1033.99 309.664C1030.46 309.664 1027.13 310.288 1024.23 311.535C1021.32 312.782 1018.61 314.444 1016.33 316.731C1014.04 319.017 1012.38 321.718 1011.13 324.836C1009.89 327.953 1009.26 331.279 1009.26 335.227C1009.26 338.968 1009.89 342.293 1011.13 345.411C1012.38 348.528 1014.04 351.23 1016.33 353.516C1018.61 355.802 1021.11 357.465 1024.23 358.712C1027.13 360.167 1030.46 360.79 1033.99 360.79ZM1163.03 338.345H1177.99C1183.6 338.345 1187.97 337.098 1190.67 334.604C1193.37 332.11 1194.83 328.785 1194.83 324.42C1194.83 320.056 1193.37 316.731 1190.67 314.237C1187.97 311.743 1183.6 310.704 1177.99 310.704H1163.03V338.345Z" fill="#818285"></path></g><defs><clipPath id="clip0_407_155"><rect width="1562" height="446" fill="white"></rect></clipPath></defs></svg>